
<svg xmlns="http://www.w3.org/2000/svg" viewBox="0 0 108 120" fill="none">
  <defs>
    
  </defs>
  <g fill="#E84600">
    
    <polygon points="54,1 75.78,13.5 75.78,38.5 54,51 32.22,38.5 32.22,13.5"></polygon>
    
    <polygon points="26,17 47.78,29.5 47.78,54.5 26,67 4.22,54.5 4.22,29.5"></polygon>
    
    <polygon points="82,17 103.78,29.5 103.78,54.5 82,67 60.22,54.5 60.22,29.5"></polygon>
  </g>
  <g fill="#BA3800">
    
    <polygon points="26,53 47.78,65.5 47.78,90.5 26,103 4.22,90.5 4.22,65.5"></polygon>
    
    <polygon points="82,53 103.78,65.5 103.78,90.5 82,103 60.22,90.5 60.22,65.5"></polygon>
    
    <polygon points="54,69 75.78,81.5 75.78,106.5 54,119 32.22,106.5 32.22,81.5"></polygon>
  </g>
</svg>