<svg width="242" height="242" viewBox="0 0 242 242" fill="none" xmlns="http://www.w3.org/2000/svg">
<path d="M45.4926 137.957V106.212V97.7585L71.8438 81.9612V66.9035V50.1987L57.5422 58.5343L30.25 74.466V106.212V137.957V168.611L83.1875 199.482V166.628L45.4926 145.301V137.957Z" fill="#E84600"/>
<path d="M96.0773 166.577V200.289V207.247L121 221.531L145.923 207.247V200.289V166.577L121 151.116L96.0773 166.577Z" fill="#E84600"/>
<path d="M115.42 111.455L78.9524 91.7588L58.2648 104.363V137.487L88.9685 155.368L115.42 139.755V111.455Z" fill="#E84600"/>
<path d="M157.266 79.2219V71.8107V43.4093V42.2329L121 20.2512L84.7335 42.2329V43.4093V71.8107V79.2219L121 99.1365L157.266 79.2219Z" fill="#E84600"/>
<path d="M184.458 58.5343L170.156 50.1987V66.9035V81.9612L196.507 97.7585V106.212V137.957V145.301L158.812 166.628V199.482L211.75 168.611V137.957V106.212V74.466L184.458 58.5343Z" fill="#E84600"/>
<path d="M183.735 104.363L163.048 91.7588L126.58 111.455V139.755L153.032 155.368L183.735 137.487V104.363Z" fill="#E84600"/>
<path d="M157.266 42.2329V43.4093V71.8107V79.2219L121 99.1365V71.8107V43.5269V20.2512L157.266 42.2329Z" fill="#BB2609"/>
<path d="M196.507 145.301V137.957V106.212V97.7585L170.156 81.9612V66.9035V50.1987L184.458 58.5343L211.75 74.466V106.212V137.957V168.611L158.812 199.482V166.628L196.507 145.301Z" fill="#BB2609"/>
<path d="M145.923 166.577V200.289V207.247L121 221.531V200.289V151.116L145.923 166.577Z" fill="#BB2609"/>
<path d="M183.735 104.363L163.048 91.7588L126.58 111.455V139.755L153.032 155.368L183.735 137.487V104.363Z" fill="#BB2609"/>
</svg>
