<svg width="503" height="120" viewBox="0 0 503 120" fill="none" xmlns="http://www.w3.org/2000/svg">
<g clip-path="url(#clip0_5_331)">
<path d="M166.8 70.13C166.8 76.64 161.86 82.9 153.57 82.9H135.08V37.56H152.12C159.62 37.56 164.36 42.03 164.36 49.14C164.36 53.09 162.91 57.1 158.64 58.75C163.97 59.93 166.8 65.2 166.8 70.13ZM152.07 43.08H141.08V56.44H152.27C156.35 56.44 158.39 53.61 158.39 49.73C158.39 45.85 156.22 43.08 152.07 43.08ZM152.33 77.36C157.92 77.36 160.82 73.81 160.82 69.6C160.82 65.39 158.19 61.7 152.66 61.7H141.08V77.36H152.33Z" fill="white"></path>
<path d="M197.01 52.16H202.73V82.89H197.01V78.09C195.17 81.97 190.23 83.68 186.81 83.68C179.11 83.68 174.37 78.55 174.44 69.93V52.16H180.16V69.79C180.16 74.99 183.25 78.28 187.53 78.28C191.81 78.28 196.94 75.71 197.01 69.07V52.16Z" fill="white"></path>
<path d="M211.49 40.84C211.49 38.67 213.33 37.02 215.5 37.02C217.67 37.02 219.58 38.66 219.58 40.84C219.58 43.02 217.74 44.66 215.5 44.66C213.26 44.66 211.49 43.02 211.49 40.84ZM212.67 82.89V52.16H218.39V82.89H212.67Z" fill="white"></path>
<path d="M228.33 82.89V35.45H234.06V82.89H228.33Z" fill="white"></path>
<path d="M268.28 35.45H274.01V82.89H268.28V78.09C266.24 81.58 261.77 83.68 257.36 83.68C248.94 83.68 241.96 77.17 241.96 67.49C241.96 57.81 248.87 51.37 257.29 51.37C261.9 51.37 266.24 53.34 268.28 56.96V35.44V35.45ZM268.28 67.43C268.28 60.78 262.88 56.77 257.82 56.77C252.23 56.77 247.75 61.24 247.75 67.43C247.75 73.62 252.22 78.29 257.82 78.29C263.42 78.29 268.28 74.01 268.28 67.43Z" fill="white"></path>
<path d="M282.16 60.32C282.16 47.49 292.36 36.76 305.19 36.76C312.17 36.76 318.22 39.72 322.23 44.46L317.89 48.15C314.86 44.6 310.26 42.29 305.19 42.29C295.65 42.29 288.15 50.58 288.15 60.32C288.15 70.06 295.65 78.15 305.19 78.15C310.26 78.15 314.86 75.85 317.89 72.29L322.23 75.98C318.22 80.72 312.16 83.68 305.19 83.68C292.36 83.68 282.16 73.15 282.16 60.32Z" fill="white"></path>
<path d="M349.08 52.56L348.16 57.96C346.52 57.17 344.87 56.91 343.69 56.91C337.57 56.91 335.14 63.56 335.14 71.65V82.9H329.35V52.17H335.14V59.14C336.72 53.74 339.68 51.38 343.76 51.38C345.93 51.38 348.17 51.97 349.09 52.56H349.08Z" fill="white"></path>
<path d="M382.64 69.99H357.64C358.5 75.45 362.44 78.28 367.71 78.28C371.46 78.28 374.88 76.57 376.66 73.48L381.6 75.45C378.97 80.78 373.44 83.67 367.52 83.67C358.77 83.67 351.73 77.16 351.73 67.42C351.73 57.68 358.77 51.37 367.52 51.37C376.27 51.37 382.79 57.69 382.79 67.42C382.79 68.28 382.72 69.13 382.66 69.99H382.64ZM377.05 65.06C376.33 59.8 372.58 56.77 367.51 56.77C362.44 56.77 358.63 59.53 357.71 65.06H377.05Z" fill="white"></path>
<path d="M429.23 52.16H435.42L423.97 82.89H419.17L410.68 60.06L402.52 82.89H397.78L386.07 52.16H392.26L400.09 74.01L407.92 52.16H413.51L421.41 74.01L429.24 52.16H429.23Z" fill="white"></path>
<path d="M437.33 79.6C437.33 77.23 439.24 75.52 441.47 75.52C443.7 75.52 445.75 77.23 445.75 79.6C445.75 81.97 443.78 83.55 441.47 83.55C439.16 83.55 437.33 81.91 437.33 79.6Z" fill="white"></path>
<path d="M484.31 82.89L479.9 71.24H460.42L456.01 82.89H449.76L467 37.55H473.32L490.56 82.89H484.31ZM462.4 65.98H477.93L470.17 45.38L462.41 65.98H462.4Z" fill="white"></path>
<path d="M497.01 82.89V37.55H503V82.89H497.01Z" fill="white"></path>
<path d="M9.07 70.04V51.15V46.12L24.75 36.72V27.76V17.82L16.24 22.78L0 32.26V51.15V70.04V88.28L31.5 106.65V87.1L9.07 74.41V70.04Z" fill="#E84600"></path>
<path d="M39.17 87.07V107.13V111.27L54 119.77L68.83 111.27V107.13V87.07L54 77.87L39.17 87.07Z" fill="#E84600"></path>
<path d="M50.68 54.27L28.98 42.55L16.67 50.05V69.76L34.94 80.4L50.68 71.11V54.27Z" fill="#E84600"></path>
<path d="M75.58 35.09V30.68V13.78V13.08L54 0L32.42 13.08V13.78V30.68V35.09L54 46.94L75.58 35.09Z" fill="#E84600"></path>
<path d="M91.76 22.78L83.25 17.82V27.76V36.72L98.93 46.12V51.15V70.04V74.41L76.5 87.1V106.65L108 88.28V70.04V51.15V32.26L91.76 22.78Z" fill="#E84600"></path>
<path d="M91.3299 50.05L79.0199 42.55L57.3199 54.27V71.11L73.0599 80.4L91.3299 69.76V50.05Z" fill="#E84600"></path>
<path d="M75.58 13.08V13.78V30.68V35.09L54 46.94V30.68V13.85V0L75.58 13.08Z" fill="#BB2609"></path>
<path d="M98.93 74.41V70.04V51.15V46.12L83.25 36.72V27.76V17.82L91.76 22.78L108 32.26V51.15V70.04V88.28L76.5 106.65V87.1L98.93 74.41Z" fill="#BB2609"></path>
<path d="M68.83 87.07V107.13V111.27L54 119.77V107.13V77.87L68.83 87.07Z" fill="#BB2609"></path>
<path d="M91.3299 50.05L79.0199 42.55L57.3199 54.27V71.11L73.0599 80.4L91.3299 69.76V50.05Z" fill="#BB2609"></path>
</g>
<defs>
<clipPath id="clip0_5_331">
<rect width="503" height="119.77" fill="white"></rect>
</clipPath>
</defs>
</svg>